{
  "accessors": [
    {
      "bufferView": 1,
      "componentType": 5126,
      "count": 1596,
      "max": [
        1.2233699560165405,
        9.003769874572754,
        1.1891200542449951
      ],
      "min": [
        -1.8713099956512451,
        -11.999190330505371,
        -1.1891200542449951
      ],
      "type": "VEC3"
    },
    {
      "bufferView": 1,
      "byteOffset": 19152,
      "componentType": 5126,
      "count": 1596,
      "max": [
        1.0,
        0.9898861050605774,
        0.9999843835830688
      ],
      "min": [
        -0.9968867897987366,
        -0.7318088412284851,
        -0.9999843835830688
      ],
      "type": "VEC3"
    },
    {
      "bufferView": 0,
      "componentType": 5125,
      "count": 2310,
      "type": "SCALAR"
    },
    {
      "bufferView": 1,
      "byteOffset": 38304,
      "componentType": 5126,
      "count": 18,
      "max": [
        0.15821999311447144,
        -12.554329872131348,
        0.3043999969959259
      ],
      "min": [
        -0.10249000042676926,
        -13.049139976501465,
        -0.3043999969959259
      ],
      "type": "VEC3"
    },
    {
      "bufferView": 1,
      "byteOffset": 38520,
      "componentType": 5126,
      "count": 18,
      "max": [
        0.8523105382919312,
        -0.29938018321990967,
        0.5529394149780273
      ],
      "min": [
        -0.8926287293434143,
        -0.4111593961715698,
        -0.5529394149780273
      ],
      "type": "VEC3"
    },
    {
      "bufferView": 0,
      "byteOffset": 9240,
      "componentType": 5125,
      "count": 18,
      "type": "SCALAR"
    },
    {
      "bufferView": 1,
      "byteOffset": 38736,
      "componentType": 5126,
      "count": 64,
      "max": [
        0.2451300024986267,
        -10.314410209655762,
        0.6549400091171265
      ],
      "min": [
        -0.42403000593185425,
        -12.860469818115234,
        -0.6549400091171265
      ],
      "type": "VEC3"
    },
    {
      "bufferView": 1,
      "byteOffset": 39504,
      "componentType": 5126,
      "count": 64,
      "max": [
        0.9985954761505127,
        0.03891982510685921,
        0.9651140570640564
      ],
      "min": [
        -0.9242018461227417,
        -0.36898073554039,
        -0.9651140570640564
      ],
      "type": "VEC3"
    },
    {
      "bufferView": 0,
      "byteOffset": 9312,
      "componentType": 5125,
      "count": 96,
      "type": "SCALAR"
    },
    {
      "bufferView": 1,
      "byteOffset": 40272,
      "componentType": 5126,
      "count": 240,
      "max": [
        0.9510599970817566,
        1.0,
        1.0
      ],
      "min": [
        -0.9510599970817566,
        -1.0,
        -1.0
      ],
      "type": "VEC3"
    },
    {
      "bufferView": 1,
      "byteOffset": 43152,
      "componentType": 5126,
      "count": 240,
      "max": [
        0.9920772314071655,
        0.9435210227966309,
        0.943524956703186
      ],
      "min": [
        -0.9920772314071655,
        -0.9435210227966309,
        -0.943524956703186
      ],
      "type": "VEC3"
    },
    {
      "bufferView": 0,
      "byteOffset": 9696,
      "componentType": 5125,
      "count": 240,
      "type": "SCALAR"
    },
    {
      "bufferView": 1,
      "byteOffset": 46032,
      "componentType": 5126,
      "count": 240,
      "max": [
        0.9510599970817566,
        1.0,
        1.0
      ],
      "min": [
        -0.9510599970817566,
        -1.0,
        -1.0
      ],
      "type": "VEC3"
    },
    {
      "bufferView": 1,
      "byteOffset": 48912,
      "componentType": 5126,
      "count": 240,
      "max": [
        0.9920772314071655,
        0.9435210227966309,
        0.943524956703186
      ],
      "min": [
        -0.9920772314071655,
        -0.9435210227966309,
        -0.943524956703186
      ],
      "type": "VEC3"
    },
    {
      "bufferView": 0,
      "byteOffset": 10656,
      "componentType": 5125,
      "count": 240,
      "type": "SCALAR"
    }
  ],
  "asset": {
    "extras": {
      "author": "Zafflex (https://sketchfab.com/Zafflex)",
      "license": "CC-BY-4.0 (http://creativecommons.org/licenses/by/4.0/)",
      "source": "https://sketchfab.com/3d-models/low-poly-black-bear-8061ded0b9fa4133bf02582d27caf2a6",
      "title": "Low-poly Black Bear"
    },
    "generator": "Sketchfab-12.68.0",
    "version": "2.0"
  },
  "bufferViews": [
    {
      "buffer": 0,
      "byteLength": 11616,
      "name": "floatBufferViews",
      "target": 34963
    },
    {
      "buffer": 0,
      "byteLength": 51792,
      "byteOffset": 11616,
      "byteStride": 12,
      "name": "floatBufferViews",
      "target": 34962
    }
  ],
  "buffers": [
    {
      "byteLength": 63408,
      "uri": "scene.bin"
    }
  ],
  "materials": [
    {
      "doubleSided": true,
      "name": "Black_bear",
      "pbrMetallicRoughness": {
        "baseColorFactor": [
          0.03738708049058914,
          0.034049130976200104,
          0.03717653080821037,
          1.0
        ],
        "metallicFactor": 0.0,
        "roughnessFactor": 0.6
      }
    },
    {
      "doubleSided": true,
      "name": "Black_bear_Nose",
      "pbrMetallicRoughness": {
        "baseColorFactor": [
          0.020378852263092995,
          0.020378852263092995,
          0.020378852263092995,
          1.0
        ],
        "metallicFactor": 0.0,
        "roughnessFactor": 0.6
      }
    },
    {
      "doubleSided": true,
      "name": "Black_bear_front-face",
      "pbrMetallicRoughness": {
        "baseColorFactor": [
          0.8000000715255737,
          0.5007211565971375,
          0.26748427748680115,
          1.0
        ],
        "metallicFactor": 0.0,
        "roughnessFactor": 0.6
      }
    },
    {
      "doubleSided": true,
      "name": "material",
      "pbrMetallicRoughness": {
        "baseColorFactor": [
          0.0,
          0.0,
          0.0,
          1.0
        ],
        "metallicFactor": 0.0,
        "roughnessFactor": 0.6
      }
    },
    {
      "doubleSided": true,
      "name": "eye.001",
      "pbrMetallicRoughness": {
        "baseColorFactor": [
          0.0,
          0.0,
          0.0,
          1.0
        ],
        "metallicFactor": 0.0,
        "roughnessFactor": 0.6
      }
    }
  ],
  "meshes": [
    {
      "name": "Plane_0",
      "primitives": [
        {
          "attributes": {
            "NORMAL": 1,
            "POSITION": 0
          },
          "indices": 2,
          "material": 0,
          "mode": 4
        }
      ]
    },
    {
      "name": "Plane_1",
      "primitives": [
        {
          "attributes": {
            "NORMAL": 4,
            "POSITION": 3
          },
          "indices": 5,
          "material": 1,
          "mode": 4
        }
      ]
    },
    {
      "name": "Plane_2",
      "primitives": [
        {
          "attributes": {
            "NORMAL": 7,
            "POSITION": 6
          },
          "indices": 8,
          "material": 2,
          "mode": 4
        }
      ]
    },
    {
      "name": "Icosphere_0",
      "primitives": [
        {
          "attributes": {
            "NORMAL": 10,
            "POSITION": 9
          },
          "indices": 11,
          "material": 3,
          "mode": 4
        }
      ]
    },
    {
      "name": "Icosphere.001_0",
      "primitives": [
        {
          "attributes": {
            "NORMAL": 13,
            "POSITION": 12
          },
          "indices": 14,
          "material": 4,
          "mode": 4
        }
      ]
    }
  ],
  "nodes": [
    {
      "children": [
        1
      ],
      "matrix": [
        1.0,
        0.0,
        0.0,
        0.0,
        0.0,
        2.220446049250313e-16,
        -1.0,
        0.0,
        0.0,
        1.0,
        2.220446049250313e-16,
        0.0,
        0.0,
        0.0,
        0.0,
        1.0
      ],
      "name": "Sketchfab_model"
    },
    {
      "children": [
        2
      ],
      "name": "Root"
    },
    {
      "children": [
        3,
        4,
        5,
        6,
        8
      ],
      "matrix": [
        0.0,
        0.0,
        -0.21536000000000002,
        0.0,
        -0.058150000000000014,
        -0.0,
        -0.0,
        0.0,
        -0.0,
        0.21536000000000002,
        -0.0,
        0.0,
        -0.0,
        0.0,
        0.0,
        1.0
      ],
      "name": "Plane"
    },
    {
      "mesh": 0,
      "name": "Plane_0"
    },
    {
      "mesh": 1,
      "name": "Plane_1"
    },
    {
      "mesh": 2,
      "name": "Plane_2"
    },
    {
      "children": [
        7
      ],
      "matrix": [
        0.0,
        -0.28755000000000003,
        -0.0,
        0.0,
        0.0,
        -0.0,
        0.07764000000000001,
        0.0,
        -0.07764000000000001,
        -0.0,
        -0.0,
        0.0,
        -0.6358200000000002,
        -11.340530000000001,
        0.3714700000000001,
        1.0
      ],
      "name": "Icosphere"
    },
    {
      "mesh": 3,
      "name": "Icosphere_0"
    },
    {
      "children": [
        9
      ],
      "matrix": [
        0.0,
        -0.28755000000000003,
        -0.0,
        0.0,
        0.0,
        -0.0,
        0.07764000000000001,
        0.0,
        -0.07764000000000001,
        -0.0,
        -0.0,
        0.0,
        -0.6358200000000002,
        -11.340530000000001,
        -0.3714800000000001,
        1.0
      ],
      "name": "Icosphere.001"
    },
    {
      "mesh": 4,
      "name": "Icosphere.001_0"
    }
  ],
  "scene": 0,
  "scenes": [
    {
      "name": "Sketchfab_Scene",
      "nodes": [
        0
      ]
    }
  ]
}
