{
    "asset" : {
        "generator" : "Khronos glTF Blender I/O v1.7.33",
        "version" : "2.0"
    },
    "scene" : 0,
    "scenes" : [
        {
            "name" : "Scene",
            "nodes" : [
                0
            ]
        }
    ],
    "nodes" : [
        {
            "mesh" : 0,
            "name" : "precontact tree bunch",
            "rotation" : [
                0.7071068286895752,
                0,
                0,
                0.7071067094802856
            ]
        }
    ],
    "materials" : [
        {
            "alphaCutoff" : 0.5,
            "alphaMode" : "MASK",
            "doubleSided" : true,
            "name" : "pasted__lambert3SG",
            "pbrMetallicRoughness" : {
                "baseColorFactor" : [
                    0.23000000417232513,
                    0.3100000023841858,
                    0.029999999329447746,
                    1
                ],
                "metallicFactor" : 0
            }
        },
        {
            "doubleSided" : true,
            "name" : "pasted__lambert2SG",
            "pbrMetallicRoughness" : {
                "baseColorFactor" : [
                    0.27000001072883606,
                    0.029999999329447746,
                    0.07999999821186066,
                    1
                ],
                "metallicFactor" : 0
            }
        },
        {
            "doubleSided" : true,
            "name" : "pasted__lambert9SG",
            "pbrMetallicRoughness" : {
                "baseColorFactor" : [
                    0.09000000357627869,
                    0.14000000059604645,
                    0,
                    1
                ],
                "metallicFactor" : 0
            }
        },
        {
            "doubleSided" : true,
            "name" : "pasted__lambert7SG",
            "pbrMetallicRoughness" : {
                "baseColorFactor" : [
                    0.14000000059604645,
                    0.07000000029802322,
                    0,
                    1
                ],
                "metallicFactor" : 0
            }
        },
        {
            "doubleSided" : true,
            "name" : "pasted__lambert4SG",
            "pbrMetallicRoughness" : {
                "baseColorFactor" : [
                    0.23999999463558197,
                    0.12999999523162842,
                    0.019999999552965164,
                    1
                ],
                "metallicFactor" : 0
            }
        },
        {
            "doubleSided" : true,
            "name" : "pasted__lambert5SG",
            "pbrMetallicRoughness" : {
                "baseColorFactor" : [
                    0.14000000059604645,
                    0.20999999344348907,
                    0.009999999776482582,
                    1
                ],
                "metallicFactor" : 0
            }
        },
        {
            "doubleSided" : true,
            "name" : "pasted__lambert11SG1",
            "pbrMetallicRoughness" : {
                "baseColorFactor" : [
                    0.23000000417232513,
                    0.23999999463558197,
                    0.23999999463558197,
                    1
                ],
                "metallicFactor" : 0
            }
        }
    ],
    "meshes" : [
        {
            "name" : "precontact tree bunch",
            "primitives" : [
                {
                    "attributes" : {
                        "POSITION" : 0,
                        "NORMAL" : 1,
                        "TEXCOORD_0" : 2
                    },
                    "indices" : 3,
                    "material" : 0
                },
                {
                    "attributes" : {
                        "POSITION" : 4,
                        "NORMAL" : 5,
                        "TEXCOORD_0" : 6
                    },
                    "indices" : 7,
                    "material" : 1
                },
                {
                    "attributes" : {
                        "POSITION" : 8,
                        "NORMAL" : 9,
                        "TEXCOORD_0" : 10
                    },
                    "indices" : 11,
                    "material" : 2
                },
                {
                    "attributes" : {
                        "POSITION" : 12,
                        "NORMAL" : 13,
                        "TEXCOORD_0" : 14
                    },
                    "indices" : 15,
                    "material" : 3
                },
                {
                    "attributes" : {
                        "POSITION" : 16,
                        "NORMAL" : 17,
                        "TEXCOORD_0" : 18
                    },
                    "indices" : 19,
                    "material" : 4
                },
                {
                    "attributes" : {
                        "POSITION" : 20,
                        "NORMAL" : 21,
                        "TEXCOORD_0" : 22
                    },
                    "indices" : 23,
                    "material" : 5
                },
                {
                    "attributes" : {
                        "POSITION" : 24,
                        "NORMAL" : 25,
                        "TEXCOORD_0" : 26
                    },
                    "indices" : 27,
                    "material" : 6
                }
            ]
        }
    ],
    "accessors" : [
        {
            "bufferView" : 0,
            "componentType" : 5126,
            "count" : 8680,
            "max" : [
                48.18613052368164,
                50.340171813964844,
                0.0008800000068731606
            ],
            "min" : [
                -49.85441589355469,
                -47.312862396240234,
                -1.9101890325546265
            ],
            "type" : "VEC3"
        },
        {
            "bufferView" : 1,
            "componentType" : 5126,
            "count" : 8680,
            "type" : "VEC3"
        },
        {
            "bufferView" : 2,
            "componentType" : 5126,
            "count" : 8680,
            "type" : "VEC2"
        },
        {
            "bufferView" : 3,
            "componentType" : 5123,
            "count" : 13020,
            "type" : "SCALAR"
        },
        {
            "bufferView" : 4,
            "componentType" : 5126,
            "count" : 15670,
            "max" : [
                32.68158721923828,
                12.92386245727539,
                0
            ],
            "min" : [
                -19.717571258544922,
                -9.550188064575195,
                -4.97279691696167
            ],
            "type" : "VEC3"
        },
        {
            "bufferView" : 5,
            "componentType" : 5126,
            "count" : 15670,
            "type" : "VEC3"
        },
        {
            "bufferView" : 6,
            "componentType" : 5126,
            "count" : 15670,
            "type" : "VEC2"
        },
        {
            "bufferView" : 7,
            "componentType" : 5123,
            "count" : 23610,
            "type" : "SCALAR"
        },
        {
            "bufferView" : 8,
            "componentType" : 5126,
            "count" : 4738,
            "max" : [
                63.613765716552734,
                52.63270568847656,
                -1.558087944984436
            ],
            "min" : [
                -55.60560607910156,
                -39.86155319213867,
                -17.037256240844727
            ],
            "type" : "VEC3"
        },
        {
            "bufferView" : 9,
            "componentType" : 5126,
            "count" : 4738,
            "type" : "VEC3"
        },
        {
            "bufferView" : 10,
            "componentType" : 5126,
            "count" : 4738,
            "type" : "VEC2"
        },
        {
            "bufferView" : 11,
            "componentType" : 5123,
            "count" : 7392,
            "type" : "SCALAR"
        },
        {
            "bufferView" : 12,
            "componentType" : 5126,
            "count" : 628,
            "max" : [
                61.18706512451172,
                50.06644058227539,
                0
            ],
            "min" : [
                -52.151878356933594,
                -36.3829460144043,
                -5.335907936096191
            ],
            "type" : "VEC3"
        },
        {
            "bufferView" : 13,
            "componentType" : 5126,
            "count" : 628,
            "type" : "VEC3"
        },
        {
            "bufferView" : 14,
            "componentType" : 5126,
            "count" : 628,
            "type" : "VEC2"
        },
        {
            "bufferView" : 15,
            "componentType" : 5123,
            "count" : 1020,
            "type" : "SCALAR"
        },
        {
            "bufferView" : 16,
            "componentType" : 5126,
            "count" : 7732,
            "max" : [
                55.87257766723633,
                35.7030029296875,
                0.5014709830284119
            ],
            "min" : [
                -49.48926544189453,
                -35.7326545715332,
                -20.9411678314209
            ],
            "type" : "VEC3"
        },
        {
            "bufferView" : 17,
            "componentType" : 5126,
            "count" : 7732,
            "type" : "VEC3"
        },
        {
            "bufferView" : 18,
            "componentType" : 5126,
            "count" : 7732,
            "type" : "VEC2"
        },
        {
            "bufferView" : 19,
            "componentType" : 5123,
            "count" : 11724,
            "type" : "SCALAR"
        },
        {
            "bufferView" : 20,
            "componentType" : 5126,
            "count" : 6468,
            "max" : [
                57.13248062133789,
                37.968875885009766,
                -7.155252933502197
            ],
            "min" : [
                -51.79298400878906,
                -38.970703125,
                -24.144546508789062
            ],
            "type" : "VEC3"
        },
        {
            "bufferView" : 21,
            "componentType" : 5126,
            "count" : 6468,
            "type" : "VEC3"
        },
        {
            "bufferView" : 22,
            "componentType" : 5126,
            "count" : 6468,
            "type" : "VEC2"
        },
        {
            "bufferView" : 23,
            "componentType" : 5123,
            "count" : 7944,
            "type" : "SCALAR"
        },
        {
            "bufferView" : 24,
            "componentType" : 5126,
            "count" : 1980,
            "max" : [
                52.90639877319336,
                38.89934539794922,
                -0.20595400035381317
            ],
            "min" : [
                -49.34381866455078,
                -15.39981746673584,
                -1.4452719688415527
            ],
            "type" : "VEC3"
        },
        {
            "bufferView" : 25,
            "componentType" : 5126,
            "count" : 1980,
            "type" : "VEC3"
        },
        {
            "bufferView" : 26,
            "componentType" : 5126,
            "count" : 1980,
            "type" : "VEC2"
        },
        {
            "bufferView" : 27,
            "componentType" : 5123,
            "count" : 1980,
            "type" : "SCALAR"
        }
    ],
    "bufferViews" : [
        {
            "buffer" : 0,
            "byteLength" : 104160,
            "byteOffset" : 0
        },
        {
            "buffer" : 0,
            "byteLength" : 104160,
            "byteOffset" : 104160
        },
        {
            "buffer" : 0,
            "byteLength" : 69440,
            "byteOffset" : 208320
        },
        {
            "buffer" : 0,
            "byteLength" : 26040,
            "byteOffset" : 277760
        },
        {
            "buffer" : 0,
            "byteLength" : 188040,
            "byteOffset" : 303800
        },
        {
            "buffer" : 0,
            "byteLength" : 188040,
            "byteOffset" : 491840
        },
        {
            "buffer" : 0,
            "byteLength" : 125360,
            "byteOffset" : 679880
        },
        {
            "buffer" : 0,
            "byteLength" : 47220,
            "byteOffset" : 805240
        },
        {
            "buffer" : 0,
            "byteLength" : 56856,
            "byteOffset" : 852460
        },
        {
            "buffer" : 0,
            "byteLength" : 56856,
            "byteOffset" : 909316
        },
        {
            "buffer" : 0,
            "byteLength" : 37904,
            "byteOffset" : 966172
        },
        {
            "buffer" : 0,
            "byteLength" : 14784,
            "byteOffset" : 1004076
        },
        {
            "buffer" : 0,
            "byteLength" : 7536,
            "byteOffset" : 1018860
        },
        {
            "buffer" : 0,
            "byteLength" : 7536,
            "byteOffset" : 1026396
        },
        {
            "buffer" : 0,
            "byteLength" : 5024,
            "byteOffset" : 1033932
        },
        {
            "buffer" : 0,
            "byteLength" : 2040,
            "byteOffset" : 1038956
        },
        {
            "buffer" : 0,
            "byteLength" : 92784,
            "byteOffset" : 1040996
        },
        {
            "buffer" : 0,
            "byteLength" : 92784,
            "byteOffset" : 1133780
        },
        {
            "buffer" : 0,
            "byteLength" : 61856,
            "byteOffset" : 1226564
        },
        {
            "buffer" : 0,
            "byteLength" : 23448,
            "byteOffset" : 1288420
        },
        {
            "buffer" : 0,
            "byteLength" : 77616,
            "byteOffset" : 1311868
        },
        {
            "buffer" : 0,
            "byteLength" : 77616,
            "byteOffset" : 1389484
        },
        {
            "buffer" : 0,
            "byteLength" : 51744,
            "byteOffset" : 1467100
        },
        {
            "buffer" : 0,
            "byteLength" : 15888,
            "byteOffset" : 1518844
        },
        {
            "buffer" : 0,
            "byteLength" : 23760,
            "byteOffset" : 1534732
        },
        {
            "buffer" : 0,
            "byteLength" : 23760,
            "byteOffset" : 1558492
        },
        {
            "buffer" : 0,
            "byteLength" : 15840,
            "byteOffset" : 1582252
        },
        {
            "buffer" : 0,
            "byteLength" : 3960,
            "byteOffset" : 1598092
        }
    ],
    "buffers" : [
        {
            "byteLength" : 1602052,
            "uri" : "data:application/octet-stream;base64,"
        }
    ]
}
