{
    "asset" : {
        "generator" : "Khronos glTF Blender I/O v1.7.33",
        "version" : "2.0"
    },
    "scene" : 0,
    "scenes" : [
        {
            "name" : "Scene",
            "nodes" : [
                0
            ]
        }
    ],
    "nodes" : [
        {
            "mesh" : 0,
            "name" : "sage plant",
            "rotation" : [
                0.7071068286895752,
                0,
                0,
                0.7071067094802856
            ]
        }
    ],
    "materials" : [
        {
            "doubleSided" : true,
            "name" : "lambert4SG.001",
            "pbrMetallicRoughness" : {
                "baseColorFactor" : [
                    0.3700000047683716,
                    0.44999998807907104,
                    0.2800000011920929,
                    1
                ],
                "metallicFactor" : 0
            }
        }
    ],
    "meshes" : [
        {
            "name" : "sage plant",
            "primitives" : [
                {
                    "attributes" : {
                        "POSITION" : 0,
                        "NORMAL" : 1,
                        "TEXCOORD_0" : 2
                    },
                    "indices" : 3,
                    "material" : 0
                }
            ]
        }
    ],
    "accessors" : [
        {
            "bufferView" : 0,
            "componentType" : 5126,
            "count" : 2865,
            "max" : [
                0.8447129726409912,
                0.7265629768371582,
                -0.03570599853992462
            ],
            "min" : [
                -0.6995409727096558,
                -0.8863160014152527,
                -3.3228869438171387
            ],
            "type" : "VEC3"
        },
        {
            "bufferView" : 1,
            "componentType" : 5126,
            "count" : 2865,
            "type" : "VEC3"
        },
        {
            "bufferView" : 2,
            "componentType" : 5126,
            "count" : 2865,
            "type" : "VEC2"
        },
        {
            "bufferView" : 3,
            "componentType" : 5123,
            "count" : 4680,
            "type" : "SCALAR"
        }
    ],
    "bufferViews" : [
        {
            "buffer" : 0,
            "byteLength" : 34380,
            "byteOffset" : 0
        },
        {
            "buffer" : 0,
            "byteLength" : 34380,
            "byteOffset" : 34380
        },
        {
            "buffer" : 0,
            "byteLength" : 22920,
            "byteOffset" : 68760
        },
        {
            "buffer" : 0,
            "byteLength" : 9360,
            "byteOffset" : 91680
        }
    ],
    "buffers" : [
        {
            "byteLength" : 101040,
            "uri" : "sage plant.bin"
        }
    ]
}
