{
    "asset" : {
        "generator" : "Khronos glTF Blender I/O v1.7.33",
        "version" : "2.0"
    },
    "scene" : 0,
    "scenes" : [
        {
            "name" : "Scene",
            "nodes" : [
                0
            ]
        }
    ],
    "nodes" : [
        {
            "mesh" : 0,
            "name" : "tobacco plant",
            "rotation" : [
                0.7071068286895752,
                0,
                0,
                0.7071067094802856
            ]
        }
    ],
    "materials" : [
        {
            "doubleSided" : true,
            "name" : "lambert4SG",
            "pbrMetallicRoughness" : {
                "baseColorFactor" : [
                    0.27000001072883606,
                    0.4399999976158142,
                    0,
                    1
                ],
                "metallicFactor" : 0
            }
        },
        {
            "doubleSided" : true,
            "name" : "lambert2SG",
            "pbrMetallicRoughness" : {
                "baseColorFactor" : [
                    1,
                    0.6200000047683716,
                    0.8100000023841858,
                    1
                ],
                "metallicFactor" : 0
            }
        },
        {
            "doubleSided" : true,
            "name" : "lambert3SG",
            "pbrMetallicRoughness" : {
                "baseColorFactor" : [
                    0.9800000190734863,
                    0.9700000286102295,
                    0.8100000023841858,
                    1
                ],
                "metallicFactor" : 0
            }
        }
    ],
    "meshes" : [
        {
            "name" : "tobacco plant",
            "primitives" : [
                {
                    "attributes" : {
                        "POSITION" : 0,
                        "NORMAL" : 1,
                        "TEXCOORD_0" : 2
                    },
                    "indices" : 3,
                    "material" : 0
                },
                {
                    "attributes" : {
                        "POSITION" : 4,
                        "NORMAL" : 5,
                        "TEXCOORD_0" : 6
                    },
                    "indices" : 7,
                    "material" : 1
                },
                {
                    "attributes" : {
                        "POSITION" : 8,
                        "NORMAL" : 9,
                        "TEXCOORD_0" : 10
                    },
                    "indices" : 11,
                    "material" : 2
                }
            ]
        }
    ],
    "accessors" : [
        {
            "bufferView" : 0,
            "componentType" : 5126,
            "count" : 3157,
            "max" : [
                0.812391996383667,
                1.1511319875717163,
                0.045841000974178314
            ],
            "min" : [
                -0.7262020111083984,
                -0.42176398634910583,
                -3.2258028984069824
            ],
            "type" : "VEC3"
        },
        {
            "bufferView" : 1,
            "componentType" : 5126,
            "count" : 3157,
            "type" : "VEC3"
        },
        {
            "bufferView" : 2,
            "componentType" : 5126,
            "count" : 3157,
            "type" : "VEC2"
        },
        {
            "bufferView" : 3,
            "componentType" : 5123,
            "count" : 4029,
            "type" : "SCALAR"
        },
        {
            "bufferView" : 4,
            "componentType" : 5126,
            "count" : 432,
            "max" : [
                0.4526039958000183,
                0.8346030116081238,
                -2.0063350200653076
            ],
            "min" : [
                -0.874127984046936,
                -0.5718690156936646,
                -3.4189610481262207
            ],
            "type" : "VEC3"
        },
        {
            "bufferView" : 5,
            "componentType" : 5126,
            "count" : 432,
            "type" : "VEC3"
        },
        {
            "bufferView" : 6,
            "componentType" : 5126,
            "count" : 432,
            "type" : "VEC2"
        },
        {
            "bufferView" : 7,
            "componentType" : 5123,
            "count" : 432,
            "type" : "SCALAR"
        },
        {
            "bufferView" : 8,
            "componentType" : 5126,
            "count" : 96,
            "max" : [
                0.31073999404907227,
                0.795403003692627,
                -2.172137975692749
            ],
            "min" : [
                -0.7795929908752441,
                -0.4443100094795227,
                -3.2616748809814453
            ],
            "type" : "VEC3"
        },
        {
            "bufferView" : 9,
            "componentType" : 5126,
            "count" : 96,
            "type" : "VEC3"
        },
        {
            "bufferView" : 10,
            "componentType" : 5126,
            "count" : 96,
            "type" : "VEC2"
        },
        {
            "bufferView" : 11,
            "componentType" : 5123,
            "count" : 96,
            "type" : "SCALAR"
        }
    ],
    "bufferViews" : [
        {
            "buffer" : 0,
            "byteLength" : 37884,
            "byteOffset" : 0
        },
        {
            "buffer" : 0,
            "byteLength" : 37884,
            "byteOffset" : 37884
        },
        {
            "buffer" : 0,
            "byteLength" : 25256,
            "byteOffset" : 75768
        },
        {
            "buffer" : 0,
            "byteLength" : 8058,
            "byteOffset" : 101024
        },
        {
            "buffer" : 0,
            "byteLength" : 5184,
            "byteOffset" : 109084
        },
        {
            "buffer" : 0,
            "byteLength" : 5184,
            "byteOffset" : 114268
        },
        {
            "buffer" : 0,
            "byteLength" : 3456,
            "byteOffset" : 119452
        },
        {
            "buffer" : 0,
            "byteLength" : 864,
            "byteOffset" : 122908
        },
        {
            "buffer" : 0,
            "byteLength" : 1152,
            "byteOffset" : 123772
        },
        {
            "buffer" : 0,
            "byteLength" : 1152,
            "byteOffset" : 124924
        },
        {
            "buffer" : 0,
            "byteLength" : 768,
            "byteOffset" : 126076
        },
        {
            "buffer" : 0,
            "byteLength" : 192,
            "byteOffset" : 126844
        }
    ],
    "buffers" : [
        {
            "byteLength" : 127036,
            "uri" : "tobacco plant.bin"
        }
    ]
}
