{
    "asset" : {
        "generator" : "Khronos glTF Blender I/O v1.7.33",
        "version" : "2.0"
    },
    "scene" : 0,
    "scenes" : [
        {
            "name" : "Scene",
            "nodes" : [
                0
            ]
        }
    ],
    "nodes" : [
        {
            "mesh" : 0,
            "name" : "wild strawberry plant",
            "rotation" : [
                0.7071068286895752,
                0,
                0,
                0.7071067094802856
            ],
            "translation" : [
                0.3391549587249756,
                4.040747165679932,
                0
            ]
        }
    ],
    "materials" : [
        {
            "doubleSided" : true,
            "name" : "lambert6SG",
            "pbrMetallicRoughness" : {
                "baseColorFactor" : [
                    1,
                    1,
                    0.8899999856948853,
                    1
                ],
                "metallicFactor" : 0
            }
        },
        {
            "doubleSided" : true,
            "name" : "pasted__lambert4SG",
            "pbrMetallicRoughness" : {
                "baseColorFactor" : [
                    0.14000000059604645,
                    0.2199999988079071,
                    0.029999999329447746,
                    1
                ],
                "metallicFactor" : 0
            }
        },
        {
            "doubleSided" : true,
            "name" : "lambert4SG",
            "pbrMetallicRoughness" : {
                "baseColorFactor" : [
                    0.14000000059604645,
                    0.2199999988079071,
                    0.029999999329447746,
                    1
                ],
                "metallicFactor" : 0
            }
        },
        {
            "doubleSided" : true,
            "name" : "lambert3SG",
            "pbrMetallicRoughness" : {
                "baseColorFactor" : [
                    0.27000001072883606,
                    0.4099999964237213,
                    0.07999999821186066,
                    1
                ],
                "metallicFactor" : 0
            }
        },
        {
            "doubleSided" : true,
            "name" : "lambert5SG",
            "pbrMetallicRoughness" : {
                "baseColorFactor" : [
                    1,
                    0.8899999856948853,
                    0,
                    1
                ],
                "metallicFactor" : 0
            }
        },
        {
            "doubleSided" : true,
            "name" : "lambert2SG",
            "pbrMetallicRoughness" : {
                "baseColorFactor" : [
                    0.9599999785423279,
                    0.14000000059604645,
                    0.05000000074505806,
                    1
                ],
                "metallicFactor" : 0
            }
        },
        {
            "doubleSided" : true,
            "name" : "pasted__pasted__lambert4SG",
            "pbrMetallicRoughness" : {
                "baseColorFactor" : [
                    0.14000000059604645,
                    0.2199999988079071,
                    0.029999999329447746,
                    1
                ],
                "metallicFactor" : 0
            }
        }
    ],
    "meshes" : [
        {
            "name" : "wild strawberry plant",
            "primitives" : [
                {
                    "attributes" : {
                        "POSITION" : 0,
                        "NORMAL" : 1,
                        "TEXCOORD_0" : 2
                    },
                    "indices" : 3,
                    "material" : 0
                },
                {
                    "attributes" : {
                        "POSITION" : 4,
                        "NORMAL" : 5,
                        "TEXCOORD_0" : 6
                    },
                    "indices" : 7,
                    "material" : 1
                },
                {
                    "attributes" : {
                        "POSITION" : 8,
                        "NORMAL" : 9,
                        "TEXCOORD_0" : 10
                    },
                    "indices" : 11,
                    "material" : 2
                },
                {
                    "attributes" : {
                        "POSITION" : 12,
                        "NORMAL" : 13,
                        "TEXCOORD_0" : 14
                    },
                    "indices" : 15,
                    "material" : 3
                },
                {
                    "attributes" : {
                        "POSITION" : 16,
                        "NORMAL" : 17,
                        "TEXCOORD_0" : 18
                    },
                    "indices" : 19,
                    "material" : 4
                },
                {
                    "attributes" : {
                        "POSITION" : 20,
                        "NORMAL" : 21,
                        "TEXCOORD_0" : 22
                    },
                    "indices" : 23,
                    "material" : 5
                },
                {
                    "attributes" : {
                        "POSITION" : 24,
                        "NORMAL" : 25,
                        "TEXCOORD_0" : 26
                    },
                    "indices" : 27,
                    "material" : 6
                }
            ]
        }
    ],
    "accessors" : [
        {
            "bufferView" : 0,
            "componentType" : 5126,
            "count" : 2520,
            "max" : [
                1.6670256853103638,
                1.9849947690963745,
                1.2688761949539185
            ],
            "min" : [
                -0.9217684268951416,
                -1.763696312904358,
                -2.3179166316986084
            ],
            "type" : "VEC3"
        },
        {
            "bufferView" : 1,
            "componentType" : 5126,
            "count" : 2520,
            "type" : "VEC3"
        },
        {
            "bufferView" : 2,
            "componentType" : 5126,
            "count" : 2520,
            "type" : "VEC2"
        },
        {
            "bufferView" : 3,
            "componentType" : 5123,
            "count" : 2520,
            "type" : "SCALAR"
        },
        {
            "bufferView" : 4,
            "componentType" : 5126,
            "count" : 774,
            "max" : [
                -0.8553062677383423,
                1.7998026609420776,
                2.3087592124938965
            ],
            "min" : [
                -3.719172477722168,
                -2.587045192718506,
                0.12473821640014648
            ],
            "type" : "VEC3"
        },
        {
            "bufferView" : 5,
            "componentType" : 5126,
            "count" : 774,
            "type" : "VEC3"
        },
        {
            "bufferView" : 6,
            "componentType" : 5126,
            "count" : 774,
            "type" : "VEC2"
        },
        {
            "bufferView" : 7,
            "componentType" : 5123,
            "count" : 774,
            "type" : "SCALAR"
        },
        {
            "bufferView" : 8,
            "componentType" : 5126,
            "count" : 1220,
            "max" : [
                2.157012701034546,
                3.429539680480957,
                4.199769020080566
            ],
            "min" : [
                -1.0943162441253662,
                -1.6149053573608398,
                -1.8815419673919678
            ],
            "type" : "VEC3"
        },
        {
            "bufferView" : 9,
            "componentType" : 5126,
            "count" : 1220,
            "type" : "VEC3"
        },
        {
            "bufferView" : 10,
            "componentType" : 5126,
            "count" : 1220,
            "type" : "VEC2"
        },
        {
            "bufferView" : 11,
            "componentType" : 5123,
            "count" : 1335,
            "type" : "SCALAR"
        },
        {
            "bufferView" : 12,
            "componentType" : 5126,
            "count" : 1558,
            "max" : [
                1.4080417156219482,
                1.579229712486267,
                2.1096231937408447
            ],
            "min" : [
                -0.8714873790740967,
                -1.6213433742523193,
                -2.0235888957977295
            ],
            "type" : "VEC3"
        },
        {
            "bufferView" : 13,
            "componentType" : 5126,
            "count" : 1558,
            "type" : "VEC3"
        },
        {
            "bufferView" : 14,
            "componentType" : 5126,
            "count" : 1558,
            "type" : "VEC2"
        },
        {
            "bufferView" : 15,
            "componentType" : 5123,
            "count" : 1740,
            "type" : "SCALAR"
        },
        {
            "bufferView" : 16,
            "componentType" : 5126,
            "count" : 864,
            "max" : [
                1.299338698387146,
                1.5694767236709595,
                0.8311362266540527
            ],
            "min" : [
                -0.46151936054229736,
                -1.3782553672790527,
                -2.1446468830108643
            ],
            "type" : "VEC3"
        },
        {
            "bufferView" : 17,
            "componentType" : 5126,
            "count" : 864,
            "type" : "VEC3"
        },
        {
            "bufferView" : 18,
            "componentType" : 5126,
            "count" : 864,
            "type" : "VEC2"
        },
        {
            "bufferView" : 19,
            "componentType" : 5123,
            "count" : 864,
            "type" : "SCALAR"
        },
        {
            "bufferView" : 20,
            "componentType" : 5126,
            "count" : 846,
            "max" : [
                1.3692986965179443,
                1.3164457082748413,
                1.175240159034729
            ],
            "min" : [
                -0.9934802055358887,
                -1.6696803569793701,
                -0.8723447322845459
            ],
            "type" : "VEC3"
        },
        {
            "bufferView" : 21,
            "componentType" : 5126,
            "count" : 846,
            "type" : "VEC3"
        },
        {
            "bufferView" : 22,
            "componentType" : 5126,
            "count" : 846,
            "type" : "VEC2"
        },
        {
            "bufferView" : 23,
            "componentType" : 5123,
            "count" : 846,
            "type" : "SCALAR"
        },
        {
            "bufferView" : 24,
            "componentType" : 5126,
            "count" : 774,
            "max" : [
                -0.6800593137741089,
                0.663982629776001,
                -0.06804776191711426
            ],
            "min" : [
                -2.2189133167266846,
                -1.524139404296875,
                -1.1387457847595215
            ],
            "type" : "VEC3"
        },
        {
            "bufferView" : 25,
            "componentType" : 5126,
            "count" : 774,
            "type" : "VEC3"
        },
        {
            "bufferView" : 26,
            "componentType" : 5126,
            "count" : 774,
            "type" : "VEC2"
        },
        {
            "bufferView" : 27,
            "componentType" : 5123,
            "count" : 774,
            "type" : "SCALAR"
        }
    ],
    "bufferViews" : [
        {
            "buffer" : 0,
            "byteLength" : 30240,
            "byteOffset" : 0
        },
        {
            "buffer" : 0,
            "byteLength" : 30240,
            "byteOffset" : 30240
        },
        {
            "buffer" : 0,
            "byteLength" : 20160,
            "byteOffset" : 60480
        },
        {
            "buffer" : 0,
            "byteLength" : 5040,
            "byteOffset" : 80640
        },
        {
            "buffer" : 0,
            "byteLength" : 9288,
            "byteOffset" : 85680
        },
        {
            "buffer" : 0,
            "byteLength" : 9288,
            "byteOffset" : 94968
        },
        {
            "buffer" : 0,
            "byteLength" : 6192,
            "byteOffset" : 104256
        },
        {
            "buffer" : 0,
            "byteLength" : 1548,
            "byteOffset" : 110448
        },
        {
            "buffer" : 0,
            "byteLength" : 14640,
            "byteOffset" : 111996
        },
        {
            "buffer" : 0,
            "byteLength" : 14640,
            "byteOffset" : 126636
        },
        {
            "buffer" : 0,
            "byteLength" : 9760,
            "byteOffset" : 141276
        },
        {
            "buffer" : 0,
            "byteLength" : 2670,
            "byteOffset" : 151036
        },
        {
            "buffer" : 0,
            "byteLength" : 18696,
            "byteOffset" : 153708
        },
        {
            "buffer" : 0,
            "byteLength" : 18696,
            "byteOffset" : 172404
        },
        {
            "buffer" : 0,
            "byteLength" : 12464,
            "byteOffset" : 191100
        },
        {
            "buffer" : 0,
            "byteLength" : 3480,
            "byteOffset" : 203564
        },
        {
            "buffer" : 0,
            "byteLength" : 10368,
            "byteOffset" : 207044
        },
        {
            "buffer" : 0,
            "byteLength" : 10368,
            "byteOffset" : 217412
        },
        {
            "buffer" : 0,
            "byteLength" : 6912,
            "byteOffset" : 227780
        },
        {
            "buffer" : 0,
            "byteLength" : 1728,
            "byteOffset" : 234692
        },
        {
            "buffer" : 0,
            "byteLength" : 10152,
            "byteOffset" : 236420
        },
        {
            "buffer" : 0,
            "byteLength" : 10152,
            "byteOffset" : 246572
        },
        {
            "buffer" : 0,
            "byteLength" : 6768,
            "byteOffset" : 256724
        },
        {
            "buffer" : 0,
            "byteLength" : 1692,
            "byteOffset" : 263492
        },
        {
            "buffer" : 0,
            "byteLength" : 9288,
            "byteOffset" : 265184
        },
        {
            "buffer" : 0,
            "byteLength" : 9288,
            "byteOffset" : 274472
        },
        {
            "buffer" : 0,
            "byteLength" : 6192,
            "byteOffset" : 283760
        },
        {
            "buffer" : 0,
            "byteLength" : 1548,
            "byteOffset" : 289952
        }
    ],
    "buffers" : [
        {
            "byteLength" : 291500,
            "uri" : "wild strawberry plant.bin"
        }
    ]
}
