{"asset":{"version":"2.0","generator":"THREE.GLTFExporter"},"scenes":[{"nodes":[0],"name":"AuxScene"}],"scene":0,"nodes":[{"mesh":0}],"bufferViews":[{"buffer":0,"byteOffset":0,"byteLength":95868,"target":34962,"byteStride":12},{"buffer":0,"byteOffset":95868,"byteLength":95868,"target":34962,"byteStride":12}],"buffers":[{"byteLength":191736,"uri":"data:application/octet-stream;base64,"}],"accessors":[{"bufferView":0,"componentType":5126,"count":7989,"max":[85.31192016601562,9.9959716796875,48.41191101074219],"min":[-87.48809051513672,-17.404029846191406,-108.18809509277344],"type":"VEC3"},{"bufferView":1,"componentType":5126,"count":7989,"max":[0.9573372602462769,1,0.9225372076034546],"min":[-0.9651501774787903,0.08211803436279297,-0.9222253561019897],"type":"VEC3"}],"materials":[{"pbrMetallicRoughness":{"baseColorFactor":[0.5019607843137255,0.5019607843137255,0.5019607843137255,1],"metallicFactor":0,"roughnessFactor":1}}],"meshes":[{"primitives":[{"mode":4,"attributes":{"POSITION":0,"NORMAL":1},"material":0}]}]}