{
    "asset" : {
        "generator" : "Khronos glTF Blender I/O v1.6.16",
        "version" : "2.0"
    },
    "scene" : 0,
    "scenes" : [
        {
            "name" : "Scene",
            "nodes" : [
                0,
                1,
                2
            ]
        }
    ],
    "nodes" : [
        {
            "name" : "Light",
            "rotation" : [
                0.16907575726509094,
                0.7558803558349609,
                -0.27217137813568115,
                0.570947527885437
            ],
            "translation" : [
                4.076245307922363,
                5.903861999511719,
                -1.0054539442062378
            ]
        },
        {
            "name" : "Camera",
            "rotation" : [
                0.483536034822464,
                0.33687159419059753,
                -0.20870360732078552,
                0.7804827094078064
            ],
            "translation" : [
                7.358891487121582,
                4.958309173583984,
                6.925790786743164
            ]
        },
        {
            "mesh" : 0,
            "name" : "canoe.003",
            "rotation" : [
                0.7071068286895752,
                0,
                0,
                0.7071067094802856
            ]
        }
    ],
    "materials" : [
        {
            "doubleSided" : true,
            "name" : "lambert8SG.002",
            "pbrMetallicRoughness" : {
                "baseColorFactor" : [
                    0.6114286184310913,
                    0.36000001430511475,
                    0.09000000357627869,
                    1
                ],
                "metallicFactor" : 0
            }
        },
        {
            "doubleSided" : true,
            "name" : "initialShadingGroup.003",
            "pbrMetallicRoughness" : {
                "baseColorFactor" : [
                    0.8500000238418579,
                    0.7099999785423279,
                    0.3799999952316284,
                    1
                ],
                "metallicFactor" : 0
            }
        },
        {
            "doubleSided" : true,
            "name" : "lambert7SG.003",
            "pbrMetallicRoughness" : {
                "baseColorFactor" : [
                    0.07000000029802322,
                    0.07000000029802322,
                    0.07000000029802322,
                    1
                ],
                "metallicFactor" : 0
            }
        }
    ],
    "meshes" : [
        {
            "name" : "canoe.003",
            "primitives" : [
                {
                    "attributes" : {
                        "POSITION" : 0,
                        "NORMAL" : 1,
                        "TEXCOORD_0" : 2
                    },
                    "indices" : 3,
                    "material" : 0
                },
                {
                    "attributes" : {
                        "POSITION" : 4,
                        "NORMAL" : 5,
                        "TEXCOORD_0" : 6
                    },
                    "indices" : 7,
                    "material" : 1
                },
                {
                    "attributes" : {
                        "POSITION" : 8,
                        "NORMAL" : 9,
                        "TEXCOORD_0" : 10
                    },
                    "indices" : 11,
                    "material" : 2
                }
            ]
        }
    ],
    "accessors" : [
        {
            "bufferView" : 0,
            "componentType" : 5126,
            "count" : 356,
            "max" : [
                1.3448749780654907,
                5.613164901733398,
                -0.01697699911892414
            ],
            "min" : [
                -1.2622369527816772,
                -5.613164901733398,
                -1.6250439882278442
            ],
            "type" : "VEC3"
        },
        {
            "bufferView" : 1,
            "componentType" : 5126,
            "count" : 356,
            "type" : "VEC3"
        },
        {
            "bufferView" : 2,
            "componentType" : 5126,
            "count" : 356,
            "type" : "VEC2"
        },
        {
            "bufferView" : 3,
            "componentType" : 5123,
            "count" : 864,
            "type" : "SCALAR"
        },
        {
            "bufferView" : 4,
            "componentType" : 5126,
            "count" : 570,
            "max" : [
                0.6212679743766785,
                -1.962622046470642,
                -0.8114410042762756
            ],
            "min" : [
                -0.6212679743766785,
                -3.0243940353393555,
                -2.2533791065216064
            ],
            "type" : "VEC3"
        },
        {
            "bufferView" : 5,
            "componentType" : 5126,
            "count" : 570,
            "type" : "VEC3"
        },
        {
            "bufferView" : 6,
            "componentType" : 5126,
            "count" : 570,
            "type" : "VEC2"
        },
        {
            "bufferView" : 7,
            "componentType" : 5123,
            "count" : 1056,
            "type" : "SCALAR"
        },
        {
            "bufferView" : 8,
            "componentType" : 5126,
            "count" : 308,
            "max" : [
                0.49134400486946106,
                -2.0018630027770996,
                -0.7979450225830078
            ],
            "min" : [
                -0.49134400486946106,
                -2.9865589141845703,
                -1.9756150245666504
            ],
            "type" : "VEC3"
        },
        {
            "bufferView" : 9,
            "componentType" : 5126,
            "count" : 308,
            "type" : "VEC3"
        },
        {
            "bufferView" : 10,
            "componentType" : 5126,
            "count" : 308,
            "type" : "VEC2"
        },
        {
            "bufferView" : 11,
            "componentType" : 5123,
            "count" : 648,
            "type" : "SCALAR"
        }
    ],
    "bufferViews" : [
        {
            "buffer" : 0,
            "byteLength" : 4272,
            "byteOffset" : 0
        },
        {
            "buffer" : 0,
            "byteLength" : 4272,
            "byteOffset" : 4272
        },
        {
            "buffer" : 0,
            "byteLength" : 2848,
            "byteOffset" : 8544
        },
        {
            "buffer" : 0,
            "byteLength" : 1728,
            "byteOffset" : 11392
        },
        {
            "buffer" : 0,
            "byteLength" : 6840,
            "byteOffset" : 13120
        },
        {
            "buffer" : 0,
            "byteLength" : 6840,
            "byteOffset" : 19960
        },
        {
            "buffer" : 0,
            "byteLength" : 4560,
            "byteOffset" : 26800
        },
        {
            "buffer" : 0,
            "byteLength" : 2112,
            "byteOffset" : 31360
        },
        {
            "buffer" : 0,
            "byteLength" : 3696,
            "byteOffset" : 33472
        },
        {
            "buffer" : 0,
            "byteLength" : 3696,
            "byteOffset" : 37168
        },
        {
            "buffer" : 0,
            "byteLength" : 2464,
            "byteOffset" : 40864
        },
        {
            "buffer" : 0,
            "byteLength" : 1296,
            "byteOffset" : 43328
        }
    ],
    "buffers" : [
        {
            "byteLength" : 44624,
            "uri" : "data:application/octet-stream;base64,"
        }
    ]
}
