{
    "asset" : {
        "generator" : "Khronos glTF Blender I/O v1.6.16",
        "version" : "2.0"
    },
    "scene" : 0,
    "scenes" : [
        {
            "name" : "Scene",
            "nodes" : [
                0,
                1,
                2
            ]
        }
    ],
    "nodes" : [
        {
            "name" : "Light",
            "rotation" : [
                0.16907575726509094,
                0.7558803558349609,
                -0.27217137813568115,
                0.570947527885437
            ],
            "translation" : [
                4.076245307922363,
                5.903861999511719,
                -1.0054539442062378
            ]
        },
        {
            "name" : "Camera",
            "rotation" : [
                0.483536034822464,
                0.33687159419059753,
                -0.20870360732078552,
                0.7804827094078064
            ],
            "translation" : [
                7.358891487121582,
                4.958309173583984,
                6.925790786743164
            ]
        },
        {
            "mesh" : 0,
            "name" : "fish2",
            "rotation" : [
                0.7071068286895752,
                0,
                0,
                0.7071067094802856
            ]
        }
    ],
    "materials" : [
        {
            "doubleSided" : true,
            "name" : "initialShadingGroup.001",
            "pbrMetallicRoughness" : {
                "baseColorFactor" : [
                    0.376262366771698,
                    0.10702310502529144,
                    0.02955685555934906,
                    1
                ],
                "metallicFactor" : 0
            }
        }
    ],
    "meshes" : [
        {
            "name" : "fish2",
            "primitives" : [
                {
                    "attributes" : {
                        "POSITION" : 0,
                        "NORMAL" : 1,
                        "TEXCOORD_0" : 2
                    },
                    "indices" : 3,
                    "material" : 0
                }
            ]
        }
    ],
    "accessors" : [
        {
            "bufferView" : 0,
            "componentType" : 5126,
            "count" : 188,
            "max" : [
                0.42424899339675903,
                0.6724690198898315,
                -0.003215000033378601
            ],
            "min" : [
                -0.42424899339675903,
                -0.6003260016441345,
                -0.3880099952220917
            ],
            "type" : "VEC3"
        },
        {
            "bufferView" : 1,
            "componentType" : 5126,
            "count" : 188,
            "type" : "VEC3"
        },
        {
            "bufferView" : 2,
            "componentType" : 5126,
            "count" : 188,
            "type" : "VEC2"
        },
        {
            "bufferView" : 3,
            "componentType" : 5123,
            "count" : 636,
            "type" : "SCALAR"
        }
    ],
    "bufferViews" : [
        {
            "buffer" : 0,
            "byteLength" : 2256,
            "byteOffset" : 0
        },
        {
            "buffer" : 0,
            "byteLength" : 2256,
            "byteOffset" : 2256
        },
        {
            "buffer" : 0,
            "byteLength" : 1504,
            "byteOffset" : 4512
        },
        {
            "buffer" : 0,
            "byteLength" : 1272,
            "byteOffset" : 6016
        }
    ],
    "buffers" : [
        {
            "byteLength" : 7288,
            "uri" : "data:application/octet-stream;base64,"
        }
    ]
}
