{
    "asset" : {
        "generator" : "Khronos glTF Blender I/O v1.6.16",
        "version" : "2.0"
    },
    "scene" : 0,
    "scenes" : [
        {
            "name" : "Scene",
            "nodes" : [
                0,
                1,
                2
            ]
        }
    ],
    "nodes" : [
        {
            "name" : "Light",
            "rotation" : [
                0.16907575726509094,
                0.7558803558349609,
                -0.27217137813568115,
                0.570947527885437
            ],
            "translation" : [
                4.076245307922363,
                5.903861999511719,
                -1.0054539442062378
            ]
        },
        {
            "name" : "Camera",
            "rotation" : [
                0.483536034822464,
                0.33687159419059753,
                -0.20870360732078552,
                0.7804827094078064
            ],
            "translation" : [
                7.358891487121582,
                4.958309173583984,
                6.925790786743164
            ]
        },
        {
            "mesh" : 0,
            "name" : "presentLacrosseStick",
            "rotation" : [
                0.7071068286895752,
                0,
                0,
                0.7071067094802856
            ]
        }
    ],
    "materials" : [
        {
            "doubleSided" : true,
            "name" : "lambert8SG.003",
            "pbrMetallicRoughness" : {
                "baseColorFactor" : [
                    0.11999999731779099,
                    0.10000000149011612,
                    0.20000000298023224,
                    1
                ],
                "metallicFactor" : 0
            }
        },
        {
            "doubleSided" : true,
            "name" : "lambert6SG",
            "pbrMetallicRoughness" : {
                "metallicFactor" : 0
            }
        },
        {
            "doubleSided" : true,
            "name" : "lambert7SG.005",
            "pbrMetallicRoughness" : {
                "metallicFactor" : 0
            }
        },
        {
            "doubleSided" : true,
            "name" : "lambert4SG",
            "pbrMetallicRoughness" : {
                "baseColorFactor" : [
                    0.23999999463558197,
                    0.23999999463558197,
                    0.28999999165534973,
                    1
                ],
                "metallicFactor" : 0
            }
        }
    ],
    "meshes" : [
        {
            "name" : "presentLacrosseStick",
            "primitives" : [
                {
                    "attributes" : {
                        "POSITION" : 0,
                        "NORMAL" : 1,
                        "TEXCOORD_0" : 2
                    },
                    "indices" : 3,
                    "material" : 0
                },
                {
                    "attributes" : {
                        "POSITION" : 4,
                        "NORMAL" : 5,
                        "TEXCOORD_0" : 6
                    },
                    "indices" : 7,
                    "material" : 1
                },
                {
                    "attributes" : {
                        "POSITION" : 8,
                        "NORMAL" : 9,
                        "TEXCOORD_0" : 10
                    },
                    "indices" : 11,
                    "material" : 2
                },
                {
                    "attributes" : {
                        "POSITION" : 12,
                        "NORMAL" : 13,
                        "TEXCOORD_0" : 14
                    },
                    "indices" : 15,
                    "material" : 3
                }
            ]
        }
    ],
    "accessors" : [
        {
            "bufferView" : 0,
            "componentType" : 5126,
            "count" : 193,
            "max" : [
                0.8581349849700928,
                0.17695200443267822,
                -0.04284000024199486
            ],
            "min" : [
                -0.8581349849700928,
                -0.17695200443267822,
                -10.921354293823242
            ],
            "type" : "VEC3"
        },
        {
            "bufferView" : 1,
            "componentType" : 5126,
            "count" : 193,
            "type" : "VEC3"
        },
        {
            "bufferView" : 2,
            "componentType" : 5126,
            "count" : 193,
            "type" : "VEC2"
        },
        {
            "bufferView" : 3,
            "componentType" : 5123,
            "count" : 414,
            "type" : "SCALAR"
        },
        {
            "bufferView" : 4,
            "componentType" : 5126,
            "count" : 3612,
            "max" : [
                0.7155749797821045,
                0.06610199809074402,
                -7.950384140014648
            ],
            "min" : [
                -0.7155749797821045,
                -0.6872270107269287,
                -10.768152236938477
            ],
            "type" : "VEC3"
        },
        {
            "bufferView" : 5,
            "componentType" : 5126,
            "count" : 3612,
            "type" : "VEC3"
        },
        {
            "bufferView" : 6,
            "componentType" : 5126,
            "count" : 3612,
            "type" : "VEC2"
        },
        {
            "bufferView" : 7,
            "componentType" : 5123,
            "count" : 16800,
            "type" : "SCALAR"
        },
        {
            "bufferView" : 8,
            "componentType" : 5126,
            "count" : 160,
            "max" : [
                0.2849690020084381,
                0.024414999410510063,
                -8.455610275268555
            ],
            "min" : [
                -0.26352500915527344,
                -0.5240790247917175,
                -9.004104614257812
            ],
            "type" : "VEC3"
        },
        {
            "bufferView" : 9,
            "componentType" : 5126,
            "count" : 160,
            "type" : "VEC3"
        },
        {
            "bufferView" : 10,
            "componentType" : 5126,
            "count" : 160,
            "type" : "VEC2"
        },
        {
            "bufferView" : 11,
            "componentType" : 5123,
            "count" : 240,
            "type" : "SCALAR"
        },
        {
            "bufferView" : 12,
            "componentType" : 5126,
            "count" : 24,
            "max" : [
                0.0968559980392456,
                0.12902100384235382,
                -0.41620299220085144
            ],
            "min" : [
                -0.0968559980392456,
                -0.12902100384235382,
                -7.695014953613281
            ],
            "type" : "VEC3"
        },
        {
            "bufferView" : 13,
            "componentType" : 5126,
            "count" : 24,
            "type" : "VEC3"
        },
        {
            "bufferView" : 14,
            "componentType" : 5126,
            "count" : 24,
            "type" : "VEC2"
        },
        {
            "bufferView" : 15,
            "componentType" : 5123,
            "count" : 36,
            "type" : "SCALAR"
        }
    ],
    "bufferViews" : [
        {
            "buffer" : 0,
            "byteLength" : 2316,
            "byteOffset" : 0
        },
        {
            "buffer" : 0,
            "byteLength" : 2316,
            "byteOffset" : 2316
        },
        {
            "buffer" : 0,
            "byteLength" : 1544,
            "byteOffset" : 4632
        },
        {
            "buffer" : 0,
            "byteLength" : 828,
            "byteOffset" : 6176
        },
        {
            "buffer" : 0,
            "byteLength" : 43344,
            "byteOffset" : 7004
        },
        {
            "buffer" : 0,
            "byteLength" : 43344,
            "byteOffset" : 50348
        },
        {
            "buffer" : 0,
            "byteLength" : 28896,
            "byteOffset" : 93692
        },
        {
            "buffer" : 0,
            "byteLength" : 33600,
            "byteOffset" : 122588
        },
        {
            "buffer" : 0,
            "byteLength" : 1920,
            "byteOffset" : 156188
        },
        {
            "buffer" : 0,
            "byteLength" : 1920,
            "byteOffset" : 158108
        },
        {
            "buffer" : 0,
            "byteLength" : 1280,
            "byteOffset" : 160028
        },
        {
            "buffer" : 0,
            "byteLength" : 480,
            "byteOffset" : 161308
        },
        {
            "buffer" : 0,
            "byteLength" : 288,
            "byteOffset" : 161788
        },
        {
            "buffer" : 0,
            "byteLength" : 288,
            "byteOffset" : 162076
        },
        {
            "buffer" : 0,
            "byteLength" : 192,
            "byteOffset" : 162364
        },
        {
            "buffer" : 0,
            "byteLength" : 72,
            "byteOffset" : 162556
        }
    ],
    "buffers" : [
        {
            "byteLength" : 162628,
            "uri" : "data:application/octet-stream;base64,"
        }
    ]
}
