{
    "asset" : {
        "generator" : "Khronos glTF Blender I/O v1.7.33",
        "version" : "2.0"
    },
    "scene" : 0,
    "scenes" : [
        {
            "name" : "Scene",
            "nodes" : [
                0
            ]
        }
    ],
    "nodes" : [
        {
            "mesh" : 0,
            "name" : "rattle",
            "rotation" : [
                0.7071068286895752,
                0,
                0,
                0.7071067094802856
            ]
        }
    ],
    "materials" : [
        {
            "doubleSided" : true,
            "name" : "lambert8SG",
            "pbrMetallicRoughness" : {
                "baseColorFactor" : [
                    0.9200000166893005,
                    0.6800000071525574,
                    0.41999998688697815,
                    1
                ],
                "metallicFactor" : 0
            }
        },
        {
            "doubleSided" : true,
            "name" : "lambert12SG",
            "pbrMetallicRoughness" : {
                "baseColorFactor" : [
                    0.8700000047683716,
                    0.5799999833106995,
                    0.1899999976158142,
                    1
                ],
                "metallicFactor" : 0
            }
        },
        {
            "doubleSided" : true,
            "name" : "lambert11SG",
            "pbrMetallicRoughness" : {
                "baseColorFactor" : [
                    0.6100000143051147,
                    0.3799999952316284,
                    0.1599999964237213,
                    1
                ],
                "metallicFactor" : 0
            }
        }
    ],
    "meshes" : [
        {
            "name" : "rattle",
            "primitives" : [
                {
                    "attributes" : {
                        "POSITION" : 0,
                        "NORMAL" : 1,
                        "TEXCOORD_0" : 2
                    },
                    "indices" : 3,
                    "material" : 0
                },
                {
                    "attributes" : {
                        "POSITION" : 4,
                        "NORMAL" : 5,
                        "TEXCOORD_0" : 6
                    },
                    "indices" : 7,
                    "material" : 1
                },
                {
                    "attributes" : {
                        "POSITION" : 8,
                        "NORMAL" : 9,
                        "TEXCOORD_0" : 10
                    },
                    "indices" : 11,
                    "material" : 2
                }
            ]
        }
    ],
    "accessors" : [
        {
            "bufferView" : 0,
            "componentType" : 5126,
            "count" : 70,
            "max" : [
                -0.7851660251617432,
                0.8957070112228394,
                0.1923139989376068
            ],
            "min" : [
                -1.238955020904541,
                0.5413820147514343,
                -0.27425700426101685
            ],
            "type" : "VEC3"
        },
        {
            "bufferView" : 1,
            "componentType" : 5126,
            "count" : 70,
            "type" : "VEC3"
        },
        {
            "bufferView" : 2,
            "componentType" : 5126,
            "count" : 70,
            "type" : "VEC2"
        },
        {
            "bufferView" : 3,
            "componentType" : 5123,
            "count" : 168,
            "type" : "SCALAR"
        },
        {
            "bufferView" : 4,
            "componentType" : 5126,
            "count" : 72,
            "max" : [
                -0.7931029796600342,
                0.9428449869155884,
                0.18417300283908844
            ],
            "min" : [
                -1.2310179471969604,
                0.4941670000553131,
                -0.2785950005054474
            ],
            "type" : "VEC3"
        },
        {
            "bufferView" : 5,
            "componentType" : 5126,
            "count" : 72,
            "type" : "VEC3"
        },
        {
            "bufferView" : 6,
            "componentType" : 5126,
            "count" : 72,
            "type" : "VEC2"
        },
        {
            "bufferView" : 7,
            "componentType" : 5123,
            "count" : 126,
            "type" : "SCALAR"
        },
        {
            "bufferView" : 8,
            "componentType" : 5126,
            "count" : 305,
            "max" : [
                -0.7545570135116577,
                0.5635150074958801,
                0.15692299604415894
            ],
            "min" : [
                -1.2867159843444824,
                -0.6868690252304077,
                -0.13550899922847748
            ],
            "type" : "VEC3"
        },
        {
            "bufferView" : 9,
            "componentType" : 5126,
            "count" : 305,
            "type" : "VEC3"
        },
        {
            "bufferView" : 10,
            "componentType" : 5126,
            "count" : 305,
            "type" : "VEC2"
        },
        {
            "bufferView" : 11,
            "componentType" : 5123,
            "count" : 447,
            "type" : "SCALAR"
        }
    ],
    "bufferViews" : [
        {
            "buffer" : 0,
            "byteLength" : 840,
            "byteOffset" : 0
        },
        {
            "buffer" : 0,
            "byteLength" : 840,
            "byteOffset" : 840
        },
        {
            "buffer" : 0,
            "byteLength" : 560,
            "byteOffset" : 1680
        },
        {
            "buffer" : 0,
            "byteLength" : 336,
            "byteOffset" : 2240
        },
        {
            "buffer" : 0,
            "byteLength" : 864,
            "byteOffset" : 2576
        },
        {
            "buffer" : 0,
            "byteLength" : 864,
            "byteOffset" : 3440
        },
        {
            "buffer" : 0,
            "byteLength" : 576,
            "byteOffset" : 4304
        },
        {
            "buffer" : 0,
            "byteLength" : 252,
            "byteOffset" : 4880
        },
        {
            "buffer" : 0,
            "byteLength" : 3660,
            "byteOffset" : 5132
        },
        {
            "buffer" : 0,
            "byteLength" : 3660,
            "byteOffset" : 8792
        },
        {
            "buffer" : 0,
            "byteLength" : 2440,
            "byteOffset" : 12452
        },
        {
            "buffer" : 0,
            "byteLength" : 894,
            "byteOffset" : 14892
        }
    ],
    "buffers" : [
        {
            "byteLength" : 15788,
            "uri" : "data:application/octet-stream;base64,"
        }
    ]
}
