{
    "asset" : {
        "generator" : "Khronos glTF Blender I/O v1.7.33",
        "version" : "2.0"
    },
    "scene" : 0,
    "scenes" : [
        {
            "name" : "Scene",
            "nodes" : [
                0
            ]
        }
    ],
    "nodes" : [
        {
            "mesh" : 0,
            "name" : "red willow.001",
            "rotation" : [
                0.7071068286895752,
                0,
                0,
                0.7071067094802856
            ]
        }
    ],
    "materials" : [
        {
            "doubleSided" : true,
            "name" : "lambert14SG.001",
            "pbrMetallicRoughness" : {
                "baseColorFactor" : [
                    0.23000000417232513,
                    0.029999999329447746,
                    0.07000000029802322,
                    1
                ],
                "metallicFactor" : 0
            }
        }
    ],
    "meshes" : [
        {
            "name" : "red willow.001",
            "primitives" : [
                {
                    "attributes" : {
                        "POSITION" : 0,
                        "NORMAL" : 1,
                        "TEXCOORD_0" : 2
                    },
                    "indices" : 3,
                    "material" : 0
                }
            ]
        }
    ],
    "accessors" : [
        {
            "bufferView" : 0,
            "componentType" : 5126,
            "count" : 2524,
            "max" : [
                0.6662750244140625,
                1.396677017211914,
                0.009680000133812428
            ],
            "min" : [
                -0.6662750244140625,
                -1.396677017211914,
                -3.782784938812256
            ],
            "type" : "VEC3"
        },
        {
            "bufferView" : 1,
            "componentType" : 5126,
            "count" : 2524,
            "type" : "VEC3"
        },
        {
            "bufferView" : 2,
            "componentType" : 5126,
            "count" : 2524,
            "type" : "VEC2"
        },
        {
            "bufferView" : 3,
            "componentType" : 5123,
            "count" : 4656,
            "type" : "SCALAR"
        }
    ],
    "bufferViews" : [
        {
            "buffer" : 0,
            "byteLength" : 30288,
            "byteOffset" : 0
        },
        {
            "buffer" : 0,
            "byteLength" : 30288,
            "byteOffset" : 30288
        },
        {
            "buffer" : 0,
            "byteLength" : 20192,
            "byteOffset" : 60576
        },
        {
            "buffer" : 0,
            "byteLength" : 9312,
            "byteOffset" : 80768
        }
    ],
    "buffers" : [
        {
            "byteLength" : 90080,
            "uri" : "data:application/octet-stream;base64,"
        }
    ]
}
