{
    "asset" : {
        "generator" : "Khronos glTF Blender I/O v1.7.33",
        "version" : "2.0"
    },
    "scene" : 0,
    "scenes" : [
        {
            "name" : "Scene",
            "nodes" : [
                0
            ]
        }
    ],
    "nodes" : [
        {
            "mesh" : 0,
            "name" : "water drum",
            "rotation" : [
                0.7071068286895752,
                0,
                0,
                0.7071067094802856
            ]
        }
    ],
    "materials" : [
        {
            "doubleSided" : true,
            "name" : "lambert5SG",
            "pbrMetallicRoughness" : {
                "baseColorFactor" : [
                    0.10999999940395355,
                    0.09000000357627869,
                    0.07000000029802322,
                    1
                ],
                "metallicFactor" : 0
            }
        },
        {
            "doubleSided" : true,
            "name" : "lambert3SG",
            "pbrMetallicRoughness" : {
                "baseColorFactor" : [
                    0.7799999713897705,
                    0.4699999988079071,
                    0.2199999988079071,
                    1
                ],
                "metallicFactor" : 0
            }
        },
        {
            "doubleSided" : true,
            "name" : "lambert4SG",
            "pbrMetallicRoughness" : {
                "baseColorFactor" : [
                    0.8600000143051147,
                    0.5799999833106995,
                    0.30000001192092896,
                    1
                ],
                "metallicFactor" : 0
            }
        }
    ],
    "meshes" : [
        {
            "name" : "water drum",
            "primitives" : [
                {
                    "attributes" : {
                        "POSITION" : 0,
                        "NORMAL" : 1,
                        "TEXCOORD_0" : 2
                    },
                    "indices" : 3,
                    "material" : 0
                },
                {
                    "attributes" : {
                        "POSITION" : 4,
                        "NORMAL" : 5,
                        "TEXCOORD_0" : 6
                    },
                    "indices" : 7,
                    "material" : 1
                },
                {
                    "attributes" : {
                        "POSITION" : 8,
                        "NORMAL" : 9,
                        "TEXCOORD_0" : 10
                    },
                    "indices" : 11,
                    "material" : 2
                }
            ]
        }
    ],
    "accessors" : [
        {
            "bufferView" : 0,
            "componentType" : 5126,
            "count" : 168,
            "max" : [
                0.7137460112571716,
                0.7505220174789429,
                -0.7292540073394775
            ],
            "min" : [
                -0.7484779953956604,
                -0.651856005191803,
                -0.918067991733551
            ],
            "type" : "VEC3"
        },
        {
            "bufferView" : 1,
            "componentType" : 5126,
            "count" : 168,
            "type" : "VEC3"
        },
        {
            "bufferView" : 2,
            "componentType" : 5126,
            "count" : 168,
            "type" : "VEC2"
        },
        {
            "bufferView" : 3,
            "componentType" : 5123,
            "count" : 288,
            "type" : "SCALAR"
        },
        {
            "bufferView" : 4,
            "componentType" : 5126,
            "count" : 643,
            "max" : [
                0.693140983581543,
                1.0363190174102783,
                0.04148099943995476
            ],
            "min" : [
                -0.5969290137290955,
                -0.6557679772377014,
                -0.9579939842224121
            ],
            "type" : "VEC3"
        },
        {
            "bufferView" : 5,
            "componentType" : 5126,
            "count" : 643,
            "type" : "VEC3"
        },
        {
            "bufferView" : 6,
            "componentType" : 5126,
            "count" : 643,
            "type" : "VEC2"
        },
        {
            "bufferView" : 7,
            "componentType" : 5123,
            "count" : 954,
            "type" : "SCALAR"
        },
        {
            "bufferView" : 8,
            "componentType" : 5126,
            "count" : 100,
            "max" : [
                0.7129330039024353,
                0.7636420130729675,
                -0.19746200740337372
            ],
            "min" : [
                -0.7667239904403687,
                -0.6947010159492493,
                -0.9010440111160278
            ],
            "type" : "VEC3"
        },
        {
            "bufferView" : 9,
            "componentType" : 5126,
            "count" : 100,
            "type" : "VEC3"
        },
        {
            "bufferView" : 10,
            "componentType" : 5126,
            "count" : 100,
            "type" : "VEC2"
        },
        {
            "bufferView" : 11,
            "componentType" : 5123,
            "count" : 150,
            "type" : "SCALAR"
        }
    ],
    "bufferViews" : [
        {
            "buffer" : 0,
            "byteLength" : 2016,
            "byteOffset" : 0
        },
        {
            "buffer" : 0,
            "byteLength" : 2016,
            "byteOffset" : 2016
        },
        {
            "buffer" : 0,
            "byteLength" : 1344,
            "byteOffset" : 4032
        },
        {
            "buffer" : 0,
            "byteLength" : 576,
            "byteOffset" : 5376
        },
        {
            "buffer" : 0,
            "byteLength" : 7716,
            "byteOffset" : 5952
        },
        {
            "buffer" : 0,
            "byteLength" : 7716,
            "byteOffset" : 13668
        },
        {
            "buffer" : 0,
            "byteLength" : 5144,
            "byteOffset" : 21384
        },
        {
            "buffer" : 0,
            "byteLength" : 1908,
            "byteOffset" : 26528
        },
        {
            "buffer" : 0,
            "byteLength" : 1200,
            "byteOffset" : 28436
        },
        {
            "buffer" : 0,
            "byteLength" : 1200,
            "byteOffset" : 29636
        },
        {
            "buffer" : 0,
            "byteLength" : 800,
            "byteOffset" : 30836
        },
        {
            "buffer" : 0,
            "byteLength" : 300,
            "byteOffset" : 31636
        }
    ],
    "buffers" : [
        {
            "byteLength" : 31936,
            "uri" : "data:application/octet-stream;base64,"
        }
    ]
}
